<?xml version="1.0" encoding="UTF-8" standalone="no"?>
<!DOCTYPE svg PUBLIC "-//W3C//DTD SVG 1.1//EN" "http://www.w3.org/Graphics/SVG/1.1/DTD/svg11.dtd">
<svg xmlns="http://www.w3.org/2000/svg" version="1.1" viewBox="0.00 0.00 500.00 500.00">
<path stroke="#6cce7f" stroke-width="2.00" fill="none" stroke-linecap="butt" vector-effect="non-scaling-stroke" d="
  M 212.13 312.48
  L 212.10 314.46"
/>
<path fill="#77d988" d="
  M 364.32 84.92
  Q 364.33 84.92 364.32 84.94
  Q 364.75 87.67 364.62 91.00
  Q 364.58 92.04 365.98 100.38
  C 367.50 109.37 372.63 114.91 381.58 116.98
  Q 384.92 117.76 390.44 118.37
  A 0.07 0.07 0.0 0 1 390.44 118.50
  Q 385.32 118.93 379.87 120.47
  Q 369.32 123.46 366.50 134.05
  Q 366.35 134.59 365.06 141.92
  C 364.76 143.59 364.47 151.23 364.28 151.23
  C 364.10 151.23 363.81 143.59 363.52 141.92
  Q 362.23 134.59 362.09 134.05
  Q 359.28 123.45 348.73 120.45
  Q 343.28 118.91 338.16 118.47
  A 0.07 0.07 0.0 0 1 338.16 118.34
  Q 343.68 117.74 347.03 116.96
  C 355.98 114.90 361.11 109.37 362.64 100.38
  Q 364.05 92.04 364.02 91.00
  Q 363.89 87.67 364.32 84.94
  Q 364.31 84.92 364.32 84.92
  Z"
/>
<circle fill="#61c376" cx="140.46" cy="131.56" r="5.23"/>
<path fill="#77d988" d="
  M 212.13 312.48
  L 212.10 314.46
  Q 212.10 321.60 212.03 328.76
  Q 212.01 331.31 209.87 331.95
  Q 197.98 335.51 197.75 335.58
  Q 189.58 338.14 175.85 341.20
  Q 168.34 342.88 163.36 343.17
  A 0.53 0.53 0.0 0 1 162.80 342.64
  L 162.80 149.39
  A 1.51 1.39 -42.6 0 1 162.82 149.15
  Q 163.09 147.63 165.11 146.40
  Q 166.04 145.83 168.05 145.83
  Q 231.47 145.85 267.72 145.83
  C 274.22 145.83 280.99 146.90 286.75 147.78
  Q 295.74 149.15 305.69 153.34
  Q 338.61 167.22 347.19 202.03
  Q 348.28 206.45 348.99 213.07
  C 349.94 221.86 349.34 228.82 348.50 235.72
  C 348.06 239.30 346.99 242.44 346.33 245.60
  Q 345.33 250.40 340.30 260.56
  A 3.45 3.37 -7.8 0 1 339.45 261.65
  C 323.63 275.20 305.41 286.58 286.99 296.85
  A 4.30 4.16 -65.9 0 1 286.07 297.22
  Q 276.23 299.90 265.74 300.00
  Q 248.88 300.17 218.36 300.15
  Q 214.11 300.15 212.38 304.32
  A 2.24 2.19 -34.3 0 0 212.21 305.17
  L 212.13 312.48
  Z
  M 211.66 194.70
  L 211.66 254.36
  A 4.68 4.68 0.0 0 0 216.34 259.04
  L 264.52 259.04
  A 34.74 32.94 0.0 0 0 299.26 226.10
  L 299.26 222.96
  A 34.74 32.94 0.0 0 0 264.52 190.02
  L 216.34 190.02
  A 4.68 4.68 0.0 0 0 211.66 194.70
  Z"
/>
<path fill="#61c376" d="
  M 358.17 178.09
  Q 359.31 177.76 361.03 177.57
  Q 368.51 176.75 373.24 176.58
  Q 386.57 176.09 395.20 179.79
  Q 404.73 183.87 406.86 193.83
  Q 407.10 194.94 406.94 199.78
  Q 406.84 202.96 406.02 205.64
  Q 402.84 215.90 397.35 224.15
  Q 387.47 238.99 373.19 252.70
  C 344.93 279.81 311.42 301.80 276.58 320.07
  Q 260.73 328.39 245.69 334.66
  Q 225.79 342.96 215.66 346.36
  Q 212.79 347.33 212.49 347.59
  A 1.24 1.21 -19.2 0 0 212.07 348.44
  Q 212.02 349.22 212.20 372.33
  C 212.25 379.31 211.14 384.01 203.53 383.98
  Q 195.27 383.94 169.63 383.91
  Q 164.49 383.91 162.85 378.22
  A 0.99 0.61 -65.4 0 1 162.82 377.98
  L 162.78 359.36
  A 0.81 0.80 88.7 0 0 161.94 358.55
  Q 146.91 359.12 133.75 357.99
  Q 131.82 357.82 124.59 356.24
  C 112.89 353.68 100.22 347.12 95.35 335.68
  C 94.29 333.19 93.56 328.21 93.84 325.04
  Q 94.61 316.52 97.68 309.44
  Q 102.68 297.93 110.91 287.65
  Q 125.55 269.37 144.76 255.64
  A 0.21 0.21 0.0 0 1 145.05 255.68
  L 145.06 255.68
  A 0.22 0.21 51.8 0 1 145.03 255.98
  Q 126.69 272.35 113.17 290.88
  C 106.11 300.54 99.36 313.90 100.18 325.32
  Q 100.94 336.13 111.76 343.04
  Q 117.95 346.99 124.70 348.55
  C 127.81 349.26 131.62 350.15 135.49 350.46
  Q 148.98 351.56 159.74 350.24
  Q 194.30 345.98 223.87 334.82
  C 250.30 324.85 275.52 311.35 299.84 296.84
  Q 337.62 274.29 370.43 243.97
  C 381.31 233.91 391.73 222.61 397.61 209.55
  C 400.07 204.08 401.39 194.58 397.39 189.39
  C 393.90 184.87 388.28 181.81 383.16 180.62
  C 380.03 179.89 377.70 179.09 374.83 178.82
  Q 366.64 178.04 358.25 178.53
  A 0.12 0.12 0.0 0 1 358.12 178.41
  L 358.12 178.15
  A 0.06 0.06 0.0 0 1 358.17 178.09
  Z"
/>
<path fill="#61c376" d="
  M 212.13 312.48
  L 212.10 314.46
  L 212.13 312.48
  Z"
/>
<ellipse fill="#61c376" cx="0.00" cy="0.00" transform="translate(340.22,336.09) rotate(-12.4)" rx="5.41" ry="5.30"/>
<ellipse fill="#61c376" cx="0.00" cy="0.00" transform="translate(296.80,384.42) rotate(-181.0)" rx="4.31" ry="4.08"/>
</svg>
